<?xml version="1.0" standalone="no"?>
<!DOCTYPE svg PUBLIC "-//W3C//DTD SVG 20010904//EN"
 "http://www.w3.org/TR/2001/REC-SVG-20010904/DTD/svg10.dtd">
<svg version="1.0" xmlns="http://www.w3.org/2000/svg"
 width="700.000000pt" height="700.000000pt" viewBox="0 0 700.000000 700.000000"
 preserveAspectRatio="xMidYMid meet">
<metadata>
Created by potrace 1.14, written by Peter Selinger 2001-2017
</metadata>
<g transform="translate(0.000000,700.000000) scale(0.100000,-0.100000)"
fill="#000000" stroke="none">
<path d="M0 5034 c0 -1839 1 -1966 17 -1953 9 8 797 794 1751 1748 l1734 1734
1749 -1749 1749 -1749 0 1968 0 1967 -3500 0 -3500 0 0 -1966z"/>
<path d="M2857 2618 c-9 -5 -12 -282 -13 -1085 -1 -593 -2 -1083 -3 -1088 -1
-7 -349 -11 -1091 -10 -718 0 -1091 -3 -1093 -10 -2 -5 -3 -102 -2 -215 l1
-205 2844 0 2845 0 0 215 0 214 -1092 0 -1093 0 -1 20 c0 12 0 498 0 1081 0
583 -2 1067 -5 1075 -3 13 -83 15 -645 15 -352 0 -646 -3 -652 -7z"/>
</g>
</svg>
